<?xml version="1.0" encoding="utf-8"?>
<!-- Generator: Adobe Illustrator 16.0.0, SVG Export Plug-In . SVG Version: 6.00 Build 0)  -->
<!DOCTYPE svg PUBLIC "-//W3C//DTD SVG 1.1//EN" "http://www.w3.org/Graphics/SVG/1.1/DTD/svg11.dtd">
<svg version="1.1" id="Layer_1" xmlns="http://www.w3.org/2000/svg" xmlns:xlink="http://www.w3.org/1999/xlink" x="0px" y="0px"
	 width="20px" height="20px" viewBox="0 0 20 20" enable-background="new 0 0 20 20" xml:space="preserve">
<g>
	<path fill-rule="evenodd" clip-rule="evenodd" fill="#FFFFFF" d="M9.2,11.857c1.22,0.253,2.369,0.492,3.528,0.732
		c0.043-0.146,0.086-0.269,0.116-0.395c0.438-1.879,0.876-3.757,1.312-5.636c0.105-0.452,0.224-0.903,0.297-1.36
		c0.057-0.354-0.189-0.741-0.649-0.709c-0.651,0.045-1.307,0.011-1.96,0.011c-0.616,0.001-0.984,0.292-1.126,0.896
		c-0.34,1.449-0.678,2.898-1.018,4.348C9.534,10.45,9.366,11.153,9.2,11.857z M4.775,11.382c0.613,0.069,1.159,0.134,1.706,0.189
		c0.547,0.056,1.096,0.097,1.644,0.149c0.224,0.022,0.314-0.074,0.363-0.292c0.306-1.371,0.627-2.737,0.943-4.104
		c0.125-0.537-0.123-0.856-0.675-0.858C8.127,6.463,7.497,6.49,6.87,6.458C6.292,6.429,5.824,6.889,5.702,7.384
		C5.603,7.787,5.519,8.195,5.425,8.6C5.209,9.527,4.993,10.453,4.775,11.382z"/>
	<path fill-rule="evenodd" clip-rule="evenodd" fill="#FFFFFF" d="M20,1.783c-0.103,0.33-0.225,0.656-0.305,0.992
		c-0.271,1.123-0.528,2.25-0.79,3.376c-0.565,2.438-1.13,4.876-1.696,7.314c-0.054,0.231-0.116,0.461-0.183,0.73
		c-0.445-0.189-0.873-0.387-1.312-0.554c-0.59-0.225-1.185-0.436-1.785-0.634c-0.23-0.076-0.313-0.142-0.244-0.425
		c0.498-2.023,0.969-4.055,1.445-6.085c0.35-1.496,0.693-2.995,1.041-4.493c0.157-0.676,0.561-0.994,1.257-0.995
		c0.497-0.001,0.995,0.021,1.49-0.007c0.457-0.024,0.838,0.063,1.08,0.488C20,1.59,20,1.687,20,1.783z"/>
	<path fill-rule="evenodd" clip-rule="evenodd" fill="#FFFFFF" d="M0,11.311c0.128-0.434,0.31-0.859,0.374-1.304
		c0.13-0.898,0.666-1.343,1.63-1.289c0.553,0.03,1.111,0.008,1.659,0.073c0.429,0.052,0.595,0.313,0.521,0.743
		c-0.095,0.552-0.223,1.099-0.373,1.639c-0.024,0.088-0.234,0.175-0.36,0.176c-1.079,0.014-2.157,0.008-3.236,0.01
		c-0.072,0-0.143,0.017-0.215,0.025C0,11.359,0,11.335,0,11.311z"/>
	<path fill-rule="evenodd" clip-rule="evenodd" fill="#FFFFFF" d="M9.2,11.857c0.167-0.704,0.334-1.407,0.499-2.112
		c0.34-1.449,0.678-2.898,1.018-4.348c0.142-0.604,0.51-0.896,1.126-0.896c0.653,0,1.31,0.034,1.96-0.011
		c0.46-0.032,0.706,0.355,0.649,0.709c-0.073,0.457-0.192,0.908-0.297,1.36c-0.436,1.879-0.873,3.757-1.312,5.636
		c-0.029,0.126-0.072,0.249-0.116,0.395C11.569,12.35,10.419,12.11,9.2,11.857z"/>
	<path fill-rule="evenodd" clip-rule="evenodd" fill="#FFFFFF" d="M4.775,11.382C4.993,10.453,5.209,9.527,5.425,8.6
		c0.094-0.404,0.178-0.813,0.277-1.216c0.122-0.495,0.59-0.955,1.167-0.926C7.497,6.49,8.127,6.463,8.756,6.466
		c0.552,0.002,0.799,0.321,0.675,0.858c-0.316,1.367-0.637,2.733-0.943,4.104c-0.049,0.218-0.139,0.314-0.363,0.292
		c-0.548-0.053-1.097-0.094-1.644-0.149C5.934,11.516,5.389,11.451,4.775,11.382z"/>
</g>
</svg>
